<svg xmlns="http://www.w3.org/2000/svg" xmlns:xlink="http://www.w3.org/1999/xlink" width="500" zoomAndPan="magnify" viewBox="0 0 375 374.999991" height="500" preserveAspectRatio="xMidYMid meet" version="1.0"><defs><clipPath id="id1"><path d="M 30.988281 126.320312 L 315.789062 126.320312 L 315.789062 223 L 30.988281 223 Z M 30.988281 126.320312 " clip-rule="nonzero"/></clipPath><clipPath id="id2"><path d="M 30.988281 96.90625 L 315.789062 96.90625 L 315.789062 194 L 30.988281 194 Z M 30.988281 96.90625 " clip-rule="nonzero"/></clipPath><clipPath id="id3"><path d="M 30.988281 61.9375 L 315.789062 61.9375 L 315.789062 159 L 30.988281 159 Z M 30.988281 61.9375 " clip-rule="nonzero"/></clipPath></defs><g clip-path="url(#id1)"><path fill="#4073f7" d="M 315.789062 204.886719 L 306.289062 203.058594 C 296.789062 201.195312 277.789062 197.535156 258.789062 199.933594 C 239.789062 202.363281 220.789062 210.882812 201.789062 216.246094 C 182.789062 221.609375 163.789062 223.820312 144.789062 222.242188 C 125.789062 220.664062 106.789062 215.300781 87.789062 208.042969 C 68.789062 200.785156 49.789062 191.636719 40.289062 187.058594 L 30.789062 182.484375 L 30.789062 126.320312 L 40.289062 126.320312 C 49.789062 126.320312 68.789062 126.320312 87.789062 126.320312 C 106.789062 126.320312 125.789062 126.320312 144.789062 126.320312 C 163.789062 126.320312 182.789062 126.320312 201.789062 126.320312 C 220.789062 126.320312 239.789062 126.320312 258.789062 126.320312 C 277.789062 126.320312 296.789062 126.320312 306.289062 126.320312 L 315.789062 126.320312 Z M 315.789062 204.886719 " fill-opacity="1" fill-rule="nonzero"/></g><g clip-path="url(#id2)"><path fill="#b9ccff" d="M 315.789062 175.472656 L 306.289062 173.644531 C 296.789062 171.78125 277.789062 168.121094 258.789062 170.519531 C 239.789062 172.949219 220.789062 181.46875 201.789062 186.832031 C 182.789062 192.195312 163.789062 194.40625 144.789062 192.828125 C 125.789062 191.25 106.789062 185.886719 87.789062 178.628906 C 68.789062 171.371094 49.789062 162.222656 40.289062 157.644531 L 30.789062 153.070312 L 30.789062 96.90625 L 40.289062 96.90625 C 49.789062 96.90625 68.789062 96.90625 87.789062 96.90625 C 106.789062 96.90625 125.789062 96.90625 144.789062 96.90625 C 163.789062 96.90625 182.789062 96.90625 201.789062 96.90625 C 220.789062 96.90625 239.789062 96.90625 258.789062 96.90625 C 277.789062 96.90625 296.789062 96.90625 306.289062 96.90625 L 315.789062 96.90625 Z M 315.789062 175.472656 " fill-opacity="1" fill-rule="nonzero"/></g><g clip-path="url(#id3)"><path fill="#d5e0ff" d="M 315.789062 140.507812 L 306.289062 138.675781 C 296.789062 136.816406 277.789062 133.15625 258.789062 135.554688 C 239.789062 137.984375 220.789062 146.503906 201.789062 151.867188 C 182.789062 157.230469 163.789062 159.4375 144.789062 157.863281 C 125.789062 156.285156 106.789062 150.917969 87.789062 143.664062 C 68.789062 136.40625 49.789062 127.253906 40.289062 122.679688 L 30.789062 118.105469 L 30.789062 61.9375 L 40.289062 61.9375 C 49.789062 61.9375 68.789062 61.9375 87.789062 61.9375 C 106.789062 61.9375 125.789062 61.9375 144.789062 61.9375 C 163.789062 61.9375 182.789062 61.9375 201.789062 61.9375 C 220.789062 61.9375 239.789062 61.9375 258.789062 61.9375 C 277.789062 61.9375 296.789062 61.9375 306.289062 61.9375 L 315.789062 61.9375 Z M 315.789062 140.507812 " fill-opacity="1" fill-rule="nonzero"/></g></svg>