<svg xmlns="http://www.w3.org/2000/svg" xmlns:xlink="http://www.w3.org/1999/xlink" width="500" zoomAndPan="magnify" viewBox="0 0 375 299.999988" height="400" preserveAspectRatio="xMidYMid meet" version="1.0"><defs><clipPath id="id1"><path d="M 0 159.582031 L 375 159.582031 L 375 290 L 0 290 Z M 0 159.582031 " clip-rule="nonzero"/></clipPath><clipPath id="id2"><path d="M 0 89.324219 L 375 89.324219 L 375 220 L 0 220 Z M 0 89.324219 " clip-rule="nonzero"/></clipPath><clipPath id="id3"><path d="M 0 9.160156 L 375 9.160156 L 375 141 L 0 141 Z M 0 9.160156 " clip-rule="nonzero"/></clipPath></defs><g clip-path="url(#id1)"><path fill="#4073f7" d="M 378.140625 265.34375 L 365.367188 262.882812 C 352.59375 260.375 327.042969 255.449219 301.496094 258.675781 C 275.945312 261.945312 250.398438 273.414062 224.847656 280.636719 C 199.296875 287.855469 173.75 290.832031 148.199219 288.707031 C 122.652344 286.582031 97.101562 279.363281 71.554688 269.59375 C 46.003906 259.824219 20.457031 247.503906 7.679688 241.347656 L -5.09375 235.1875 L -5.09375 159.582031 L 7.679688 159.582031 C 20.457031 159.582031 46.003906 159.582031 71.554688 159.582031 C 97.101562 159.582031 122.652344 159.582031 148.199219 159.582031 C 173.75 159.582031 199.296875 159.582031 224.847656 159.582031 C 250.398438 159.582031 275.945312 159.582031 301.496094 159.582031 C 327.042969 159.582031 352.59375 159.582031 365.367188 159.582031 L 378.140625 159.582031 Z M 378.140625 265.34375 " fill-opacity="1" fill-rule="nonzero"/></g><g clip-path="url(#id2)"><path fill="#b9ccff" d="M 382.460938 195.398438 L 369.683594 192.921875 C 356.910156 190.402344 331.359375 185.445312 305.808594 188.691406 C 280.261719 191.980469 254.710938 203.515625 229.160156 210.777344 C 203.609375 218.039062 178.058594 221.03125 152.511719 218.894531 C 126.960938 216.757812 101.410156 209.496094 75.859375 199.671875 C 50.308594 189.84375 24.761719 177.457031 11.984375 171.261719 L -0.789062 165.070312 L -0.789062 89.03125 L 11.984375 89.03125 C 24.761719 89.03125 50.308594 89.03125 75.859375 89.03125 C 101.410156 89.03125 126.960938 89.03125 152.511719 89.03125 C 178.058594 89.03125 203.609375 89.03125 229.160156 89.03125 C 254.710938 89.03125 280.261719 89.03125 305.808594 89.03125 C 331.359375 89.03125 356.910156 89.03125 369.683594 89.03125 L 382.460938 89.03125 Z M 382.460938 195.398438 " fill-opacity="1" fill-rule="nonzero"/></g><g clip-path="url(#id3)"><path fill="#d5e0ff" d="M 378.140625 115.773438 L 365.289062 113.28125 C 352.441406 110.746094 326.742188 105.761719 301.042969 109.027344 C 275.34375 112.335938 249.648438 123.933594 223.949219 131.238281 C 198.25 138.542969 172.550781 141.546875 146.855469 139.398438 C 121.15625 137.253906 95.457031 129.949219 69.757812 120.066406 C 44.0625 110.1875 18.363281 97.726562 5.511719 91.5 L -7.335938 85.269531 L -7.335938 8.796875 L 5.511719 8.796875 C 18.363281 8.796875 44.0625 8.796875 69.757812 8.796875 C 95.457031 8.796875 121.15625 8.796875 146.855469 8.796875 C 172.550781 8.796875 198.25 8.796875 223.949219 8.796875 C 249.648438 8.796875 275.34375 8.796875 301.042969 8.796875 C 326.742188 8.796875 352.441406 8.796875 365.289062 8.796875 L 378.140625 8.796875 Z M 378.140625 115.773438 " fill-opacity="1" fill-rule="nonzero"/></g></svg>